<?xml version="1.0" standalone="no"?>
<!DOCTYPE svg PUBLIC "-//W3C//DTD SVG 20010904//EN"
 "http://www.w3.org/TR/2001/REC-SVG-20010904/DTD/svg10.dtd">
<svg version="1.0" xmlns="http://www.w3.org/2000/svg"
 width="731.000000pt" height="263.000000pt" viewBox="0 0 731.000000 263.000000"
 preserveAspectRatio="xMidYMid meet">

<g transform="translate(0.000000,263.000000) scale(0.100000,-0.100000)"
fill="#000000" stroke="none">
<path d="M3272 2496 c-6 -13 -20 -27 -31 -31 -28 -8 -26 -19 4 -35 14 -7 25
-16 25 -19 0 -3 4 -12 9 -20 7 -10 18 -4 51 28 27 26 37 41 27 41 -9 0 -26 14
-39 30 -26 36 -32 37 -46 6z"/>
<path d="M3563 2401 c-10 -16 -9 -22 3 -32 12 -10 18 -9 31 4 14 14 14 17 0
31 -20 20 -20 20 -34 -3z"/>
<path d="M3616 2187 c-9 -49 -40 -84 -87 -99 l-40 -11 49 -24 c50 -23 81 -65
83 -110 0 -10 11 6 24 35 21 46 31 56 77 76 l52 23 -35 7 c-49 9 -77 34 -98
90 l-18 49 -7 -36z"/>
<path d="M2615 2153 c-280 -44 -573 -166 -795 -330 -95 -71 -242 -218 -302
-303 -60 -85 -130 -223 -160 -313 -20 -62 -23 -92 -23 -217 0 -124 3 -154 22
-208 92 -262 338 -439 678 -487 99 -14 304 -21 292 -9 -3 3 -56 23 -119 44
-288 97 -461 223 -550 401 -50 100 -68 176 -68 284 0 554 689 1097 1388 1094
75 0 158 -4 185 -8 77 -13 53 5 -40 29 -75 20 -117 24 -283 26 -107 1 -208 0
-225 -3z"/>
<path d="M2915 2030 c-155 -16 -336 -71 -490 -148 -186 -92 -404 -289 -490
-442 -5 -8 33 24 84 72 50 47 131 113 179 146 467 319 1098 348 1412 65 53
-49 124 -138 144 -183 3 -8 4 5 1 30 -3 25 -21 78 -41 119 -113 241 -435 378
-799 341z"/>
<path d="M3695 1208 c-130 -47 -190 -206 -125 -333 77 -151 292 -163 385 -22
76 112 36 281 -79 341 -46 23 -137 31 -181 14z m150 -112 c56 -57 57 -156 0
-213 -68 -68 -176 -27 -191 73 -8 58 2 98 36 134 24 26 35 30 79 30 41 0 57
-5 76 -24z"/>
<path d="M2780 985 l0 -225 45 0 44 0 3 83 3 82 60 5 c33 3 74 13 91 22 38 21
64 72 64 125 0 50 -18 82 -59 110 -30 20 -46 23 -142 23 l-109 0 0 -225z m191
124 c15 -15 19 -28 14 -47 -9 -38 -17 -44 -69 -49 l-46 -6 0 62 0 61 40 0 c27
0 47 -7 61 -21z"/>
<path d="M3140 985 l0 -225 50 0 50 0 0 90 0 90 75 0 75 0 0 -90 0 -90 50 0
50 0 0 225 0 225 -50 0 -50 0 0 -90 0 -90 -75 0 -75 0 0 90 0 90 -50 0 -50 0
0 -225z"/>
<path d="M4020 1165 l0 -45 55 0 55 0 0 -180 0 -180 50 0 50 0 0 180 0 180 50
0 50 0 0 45 0 45 -155 0 -155 0 0 -45z"/>
<path d="M4380 985 l0 -225 45 0 45 0 0 225 0 225 -45 0 -45 0 0 -225z"/>
<path d="M4550 1165 l0 -44 95 -3 95 -3 -71 -115 c-39 -63 -88 -143 -110 -177
l-39 -63 195 0 195 0 0 45 0 44 -105 3 -105 3 43 70 c24 39 74 118 110 178
l67 107 -185 0 -185 0 0 -45z"/>
<path d="M4986 1198 c-4 -14 -37 -392 -36 -420 0 -15 9 -18 49 -18 l49 0 7
125 c4 69 11 127 15 130 4 3 28 -52 51 -123 43 -125 45 -127 74 -127 29 0 31
2 74 128 24 70 48 127 52 127 4 0 10 -58 14 -130 l7 -130 49 0 49 0 -1 38 c0
20 -8 120 -17 222 l-17 185 -55 3 -55 3 -46 -121 c-25 -67 -49 -121 -54 -121
-5 0 -29 54 -54 120 l-46 121 -53 0 c-33 0 -54 -5 -56 -12z"/>
<path d="M3250 390 c0 -78 1 -80 24 -80 13 0 31 3 40 6 19 7 21 55 4 72 -9 9
-9 12 0 12 7 0 12 10 12 23 0 31 -18 47 -52 47 l-28 0 0 -80z m65 35 c0 -14
-8 -21 -27 -23 -24 -3 -28 0 -28 23 0 23 4 26 28 23 19 -2 27 -9 27 -23z m-11
-41 c23 -9 20 -51 -4 -59 -27 -8 -40 1 -40 29 0 34 12 42 44 30z"/>
<path d="M3410 468 c0 -3 8 -23 17 -44 9 -22 20 -57 23 -79 7 -39 8 -39 9 -7
0 18 10 51 22 73 11 22 18 46 16 52 -2 6 -11 -9 -21 -34 l-19 -44 -17 37 c-16
36 -30 57 -30 46z"/>
<path d="M3696 454 c-35 -34 -13 -144 28 -144 33 0 51 28 51 80 0 40 -5 55
-19 66 -25 18 -41 18 -60 -2z m59 -64 c0 -50 -2 -55 -24 -58 -28 -4 -41 12
-41 55 0 50 9 64 39 61 25 -3 26 -6 26 -58z"/>
<path d="M3861 388 c1 -56 4 -72 8 -48 8 49 36 52 52 6 7 -20 16 -36 20 -36 5
0 1 16 -6 34 -10 22 -11 37 -5 41 6 3 10 21 10 40 0 35 -13 45 -56 45 -24 0
-24 -2 -23 -82z m64 32 c0 -20 -6 -26 -27 -28 -25 -3 -28 0 -28 28 0 28 3 31
28 28 21 -2 27 -8 27 -28z"/>
<path d="M4033 390 c0 -51 2 -71 6 -51 8 46 23 48 45 6 11 -19 23 -35 28 -35
5 0 -3 20 -17 45 l-27 45 22 30 c12 17 20 33 17 36 -2 3 -18 -14 -35 -37 l-31
-41 -4 43 c-2 24 -4 6 -4 -41z"/>
<path d="M4192 408 c-2 -86 20 -114 69 -88 16 9 19 21 17 83 l-2 72 -3 -67
c-3 -52 -8 -70 -21 -77 -32 -17 -47 4 -53 76 l-6 68 -1 -67z"/>
<path d="M4360 390 c0 -47 4 -80 10 -80 6 0 10 28 11 63 l0 62 32 -62 c17 -35
35 -63 39 -63 4 0 7 37 6 83 l-1 82 -6 -65 -6 -65 -32 55 c-18 30 -33 58 -33
63 0 4 -4 7 -10 7 -6 0 -10 -33 -10 -80z"/>
<path d="M4550 390 l0 -80 43 1 42 2 -35 6 c-31 5 -35 10 -35 36 0 25 5 31 30
36 l30 7 -32 1 c-28 1 -33 5 -33 26 0 21 5 25 29 25 17 0 33 5 36 10 4 6 -10
10 -34 10 l-41 0 0 -80z"/>
<path d="M4710 429 c12 -22 25 -60 30 -82 l8 -42 1 35 c1 19 10 55 21 79 11
24 18 46 15 49 -2 3 -13 -15 -24 -39 l-19 -44 -17 43 c-9 23 -21 42 -26 42 -5
0 0 -18 11 -41z"/>
<path d="M4870 391 l0 -81 28 0 c15 0 33 5 40 12 14 14 16 54 2 63 -6 4 -5 13
3 25 17 28 -2 54 -42 58 l-31 3 0 -80z m64 50 c11 -18 -6 -41 -30 -41 -19 0
-24 5 -24 25 0 20 5 25 24 25 14 0 27 -4 30 -9z m-10 -57 c20 -8 21 -38 1 -54
-21 -17 -45 -5 -45 23 0 35 12 43 44 31z"/>
</g>
</svg>
