<?xml version="1.0" standalone="no"?>
<!DOCTYPE svg PUBLIC "-//W3C//DTD SVG 20010904//EN"
 "http://www.w3.org/TR/2001/REC-SVG-20010904/DTD/svg10.dtd">
<svg version="1.0" xmlns="http://www.w3.org/2000/svg"
 width="850.000000pt" height="850.000000pt" viewBox="0 0 850.000000 850.000000"
 preserveAspectRatio="xMidYMid meet">

<g transform="translate(0.000000,850.000000) scale(0.100000,-0.100000)"
fill="#000000" stroke="none">
<path d="M3823 6003 l-403 -408 0 -267 0 -267 295 -296 296 -296 -91 -89 c-50
-50 -92 -90 -95 -90 -3 0 -153 150 -335 333 l-330 332 0 -235 0 -235 328 -328
c180 -180 332 -327 339 -327 6 0 100 90 209 200 109 110 200 200 204 200 3 0
99 -92 213 -206 l206 -205 335 338 335 338 1 231 0 232 -335 -337 -334 -336
-91 90 c-49 49 -90 93 -90 96 0 4 131 138 290 298 l290 291 0 271 0 271 -196
195 -195 196 -304 -304 -305 -304 0 -235 0 -235 305 305 305 305 97 -97 96
-96 -310 -313 -309 -312 -308 306 c-183 182 -306 312 -304 321 2 8 139 152
306 319 l302 305 0 226 c0 124 -3 226 -7 226 -5 1 -189 -183 -410 -407z"/>
<path d="M2530 3105 l0 -266 68 3 67 3 3 82 c3 94 -3 89 111 96 55 3 67 7 88
31 21 25 23 36 23 145 0 114 -1 119 -26 145 -27 26 -28 26 -180 26 l-154 0 0
-265z m218 96 c3 -70 -3 -81 -50 -81 l-28 0 0 76 0 75 38 -3 37 -3 3 -64z"/>
<path d="M3060 3105 l0 -266 68 3 67 3 5 100 5 100 53 3 52 3 0 -106 0 -106
68 3 67 3 3 263 2 262 -69 0 -70 0 -3 -102 -3 -103 -50 0 -50 0 -3 103 -3 102
-69 0 -70 0 0 -265z"/>
<path d="M3656 3345 l-26 -24 0 -206 c0 -123 4 -214 10 -226 18 -32 75 -49
171 -49 92 0 132 11 161 45 15 17 17 46 18 226 l0 206 -26 27 c-26 25 -30 26
-154 26 -121 0 -128 -1 -154 -25z m189 -235 l0 -155 -37 -3 -38 -3 0 161 0
161 38 -3 37 -3 0 -155z"/>
<path d="M4142 3323 l3 -48 50 -5 50 -5 3 -213 2 -213 68 3 67 3 5 210 5 210
47 3 c41 3 49 7 54 27 3 12 4 34 2 46 l-3 24 -178 3 -178 2 3 -47z"/>
<path d="M4652 3108 l3 -263 68 -3 67 -3 0 266 0 265 -70 0 -70 0 2 -262z"/>
<path d="M4972 3323 l3 -48 88 -3 c48 -1 87 -5 87 -7 0 -6 -74 -131 -138 -232
-46 -74 -52 -89 -52 -138 l0 -55 171 0 170 0 -3 53 -3 52 -95 6 c-52 3 -89 6
-82 7 6 1 12 7 12 12 0 6 39 72 87 148 77 123 87 143 91 195 l4 57 -171 0
-172 0 3 -47z"/>
<path d="M5482 3108 l3 -263 60 0 60 0 5 154 c5 150 5 152 18 105 8 -27 17
-58 22 -69 5 -11 11 -33 15 -48 5 -27 8 -28 58 -25 l52 3 10 42 c6 23 13 45
18 49 4 4 7 15 7 25 0 9 7 29 15 45 13 26 15 17 17 -126 l3 -155 58 -3 57 -3
0 266 0 265 -75 0 c-85 0 -80 5 -110 -105 -9 -33 -21 -68 -26 -77 -5 -10 -9
-26 -9 -37 0 -10 -6 -23 -13 -29 -10 -9 -16 -1 -26 36 -7 26 -16 58 -21 72 -5
14 -16 51 -26 83 l-17 57 -79 0 -78 0 2 -262z"/>
<path d="M3100 2473 c-26 -10 -30 -25 -30 -115 0 -75 3 -91 20 -108 23 -23 84
-27 125 -8 24 11 25 14 25 114 0 92 -2 104 -19 114 -21 11 -95 12 -121 3z m78
-116 c3 -72 1 -77 -18 -77 -18 0 -20 6 -20 81 0 71 2 80 18 77 14 -3 17 -16
20 -81z"/>
<path d="M3382 2358 l3 -123 30 0 c28 0 30 3 33 44 3 39 4 42 17 25 8 -11 15
-25 15 -32 0 -22 27 -42 55 -42 23 0 25 3 19 23 -3 12 -11 24 -15 25 -12 5
-11 49 1 57 6 3 10 33 10 65 0 72 -10 80 -105 80 l-66 0 3 -122z m106 44 c3
-27 0 -32 -17 -32 -17 0 -21 6 -21 36 0 28 3 35 18 32 11 -2 18 -14 20 -36z"/>
<path d="M3702 2358 l3 -123 25 0 c22 0 26 5 30 45 3 25 9 44 14 43 5 -1 17
-21 26 -45 15 -42 36 -56 65 -44 12 4 10 16 -8 65 -21 59 -21 62 -4 110 22 64
22 71 -9 71 -20 0 -29 -9 -45 -45 -23 -53 -39 -50 -39 6 0 37 -2 39 -30 39
l-31 0 3 -122z"/>
<path d="M4020 2371 c0 -102 2 -111 22 -125 27 -19 96 -20 121 -2 14 11 17 30
17 125 l0 111 -25 0 c-24 0 -24 -1 -27 -97 -3 -93 -4 -98 -25 -101 -23 -3 -23
-1 -23 97 l0 101 -30 0 -30 0 0 -109z"/>
<path d="M4332 2358 l3 -123 25 0 c23 0 25 5 30 52 6 62 18 59 44 -9 14 -39
22 -48 42 -48 l24 0 0 125 0 125 -25 0 c-24 0 -25 -3 -25 -55 0 -30 -4 -55 -8
-55 -5 0 -19 24 -33 53 -19 42 -29 53 -52 55 l-28 3 3 -123z"/>
<path d="M4654 2467 c-2 -7 -3 -62 -2 -123 l3 -109 70 0 c65 0 70 2 73 23 3
20 -1 22 -38 22 -39 0 -41 1 -38 28 2 22 8 28 36 30 24 2 32 8 32 23 0 15 -7
19 -35 19 -32 0 -35 2 -35 30 0 28 3 30 35 30 28 0 35 4 35 20 0 18 -7 20 -65
20 -45 0 -67 -4 -71 -13z"/>
<path d="M4930 2474 c0 -6 20 -55 42 -101 6 -12 13 -48 17 -80 6 -56 7 -58 36
-58 29 0 30 2 33 50 1 28 7 59 12 70 21 45 40 98 40 111 0 21 -49 18 -56 -3
-16 -50 -27 -73 -35 -73 -5 0 -9 8 -9 18 0 39 -24 72 -52 72 -16 0 -28 -3 -28
-6z"/>
<path d="M5252 2358 l3 -123 54 -3 c30 -2 67 2 82 8 l28 12 0 104 c0 123 -2
124 -104 124 l-66 0 3 -122z m103 52 c0 -16 -6 -26 -17 -28 -14 -3 -18 3 -18
28 0 25 4 31 18 28 11 -2 17 -12 17 -28z m3 -99 c4 -23 -15 -44 -30 -35 -4 3
-8 19 -8 35 0 24 4 30 18 27 9 -2 19 -14 20 -27z"/>
</g>
</svg>
